<mxfile host="app.diagrams.net" modified="2022-05-30T06:54:32.651Z" agent="5.0 (Macintosh; Intel Mac OS X 10_15_7) AppleWebKit/537.36 (KHTML, like Gecko) Chrome/101.0.4951.64 Safari/537.36" etag="1uyBWrxtVcqk-XZ423tN" version="18.1.1" type="github">
  <diagram id="-XZ9d0_ROPGYO6ayFHmW" name="Page-1">
    <mxGraphModel dx="1773" dy="557" grid="1" gridSize="10" guides="1" tooltips="1" connect="1" arrows="1" fold="1" page="1" pageScale="1" pageWidth="827" pageHeight="1169" math="0" shadow="0">
      <root>
        <mxCell id="0" />
        <mxCell id="1" parent="0" />
        <mxCell id="K7_2CUfuvbrIvmbNIyGb-3" value="" style="rounded=0;whiteSpace=wrap;html=1;" parent="1" vertex="1">
          <mxGeometry x="-40" width="680" height="480" as="geometry" />
        </mxCell>
        <mxCell id="K7_2CUfuvbrIvmbNIyGb-4" value="VPC" style="points=[[0,0],[0.25,0],[0.5,0],[0.75,0],[1,0],[1,0.25],[1,0.5],[1,0.75],[1,1],[0.75,1],[0.5,1],[0.25,1],[0,1],[0,0.75],[0,0.5],[0,0.25]];outlineConnect=0;gradientColor=none;html=1;whiteSpace=wrap;fontSize=12;fontStyle=0;container=1;pointerEvents=0;collapsible=0;recursiveResize=0;shape=mxgraph.aws4.group;grIcon=mxgraph.aws4.group_vpc;strokeColor=#248814;fillColor=none;verticalAlign=top;align=left;spacingLeft=30;fontColor=#AAB7B8;dashed=0;" parent="1" vertex="1">
          <mxGeometry x="120" y="40" width="480" height="400" as="geometry" />
        </mxCell>
        <mxCell id="K7_2CUfuvbrIvmbNIyGb-5" style="edgeStyle=orthogonalEdgeStyle;rounded=1;orthogonalLoop=1;jettySize=auto;html=1;strokeWidth=2;fillColor=#d80073;strokeColor=#A50040;startArrow=none;startFill=0;" parent="K7_2CUfuvbrIvmbNIyGb-4" source="K7_2CUfuvbrIvmbNIyGb-7" target="K7_2CUfuvbrIvmbNIyGb-19" edge="1">
          <mxGeometry relative="1" as="geometry">
            <Array as="points">
              <mxPoint x="120" y="110" />
              <mxPoint x="120" y="220" />
            </Array>
          </mxGeometry>
        </mxCell>
        <mxCell id="K7_2CUfuvbrIvmbNIyGb-6" value="权限认证" style="edgeLabel;html=1;align=center;verticalAlign=middle;resizable=0;points=[];fontColor=default;" parent="K7_2CUfuvbrIvmbNIyGb-5" vertex="1" connectable="0">
          <mxGeometry x="-0.029" y="1" relative="1" as="geometry">
            <mxPoint as="offset" />
          </mxGeometry>
        </mxCell>
        <mxCell id="K7_2CUfuvbrIvmbNIyGb-7" value="api-gateway" style="sketch=0;points=[[0,0,0],[0.25,0,0],[0.5,0,0],[0.75,0,0],[1,0,0],[0,1,0],[0.25,1,0],[0.5,1,0],[0.75,1,0],[1,1,0],[0,0.25,0],[0,0.5,0],[0,0.75,0],[1,0.25,0],[1,0.5,0],[1,0.75,0]];outlineConnect=0;fontColor=#232F3E;gradientColor=#FF4F8B;gradientDirection=north;fillColor=#BC1356;strokeColor=#ffffff;dashed=0;verticalLabelPosition=bottom;verticalAlign=top;align=center;html=1;fontSize=12;fontStyle=0;aspect=fixed;shape=mxgraph.aws4.resourceIcon;resIcon=mxgraph.aws4.api_gateway;" parent="K7_2CUfuvbrIvmbNIyGb-4" vertex="1">
          <mxGeometry x="40" y="80" width="40" height="40" as="geometry" />
        </mxCell>
        <mxCell id="K7_2CUfuvbrIvmbNIyGb-8" style="edgeStyle=orthogonalEdgeStyle;rounded=1;orthogonalLoop=1;jettySize=auto;html=1;strokeWidth=2;strokeColor=#001DBC;fillColor=#0050ef;" parent="K7_2CUfuvbrIvmbNIyGb-4" source="K7_2CUfuvbrIvmbNIyGb-10" target="K7_2CUfuvbrIvmbNIyGb-11" edge="1">
          <mxGeometry relative="1" as="geometry" />
        </mxCell>
        <mxCell id="K7_2CUfuvbrIvmbNIyGb-9" value="查询数据" style="edgeLabel;html=1;align=center;verticalAlign=middle;resizable=0;points=[];fontColor=default;" parent="K7_2CUfuvbrIvmbNIyGb-8" vertex="1" connectable="0">
          <mxGeometry x="0.0708" y="2" relative="1" as="geometry">
            <mxPoint y="-8" as="offset" />
          </mxGeometry>
        </mxCell>
        <mxCell id="K7_2CUfuvbrIvmbNIyGb-10" value="select business data" style="sketch=0;outlineConnect=0;fontColor=#232F3E;gradientColor=none;fillColor=#D45B07;strokeColor=none;dashed=0;verticalLabelPosition=bottom;verticalAlign=top;align=center;html=1;fontSize=12;fontStyle=0;aspect=fixed;pointerEvents=1;shape=mxgraph.aws4.lambda_function;" parent="K7_2CUfuvbrIvmbNIyGb-4" vertex="1">
          <mxGeometry x="200" y="80" width="40" height="40" as="geometry" />
        </mxCell>
        <mxCell id="K7_2CUfuvbrIvmbNIyGb-11" value="data hub" style="sketch=0;points=[[0,0,0],[0.25,0,0],[0.5,0,0],[0.75,0,0],[1,0,0],[0,1,0],[0.25,1,0],[0.5,1,0],[0.75,1,0],[1,1,0],[0,0.25,0],[0,0.5,0],[0,0.75,0],[1,0.25,0],[1,0.5,0],[1,0.75,0]];outlineConnect=0;fontColor=#232F3E;gradientColor=#4D72F3;gradientDirection=north;fillColor=#3334B9;strokeColor=#ffffff;dashed=0;verticalLabelPosition=bottom;verticalAlign=top;align=center;html=1;fontSize=12;fontStyle=0;aspect=fixed;shape=mxgraph.aws4.resourceIcon;resIcon=mxgraph.aws4.rds_on_vmware;" parent="K7_2CUfuvbrIvmbNIyGb-4" vertex="1">
          <mxGeometry x="400" y="80" width="40" height="40" as="geometry" />
        </mxCell>
        <mxCell id="K7_2CUfuvbrIvmbNIyGb-12" value="api database" style="sketch=0;points=[[0,0,0],[0.25,0,0],[0.5,0,0],[0.75,0,0],[1,0,0],[0,1,0],[0.25,1,0],[0.5,1,0],[0.75,1,0],[1,1,0],[0,0.25,0],[0,0.5,0],[0,0.75,0],[1,0.25,0],[1,0.5,0],[1,0.75,0]];outlineConnect=0;fontColor=#232F3E;gradientColor=#4D72F3;gradientDirection=north;fillColor=#3334B9;strokeColor=#ffffff;dashed=0;verticalLabelPosition=bottom;verticalAlign=top;align=center;html=1;fontSize=12;fontStyle=0;aspect=fixed;shape=mxgraph.aws4.resourceIcon;resIcon=mxgraph.aws4.rds_on_vmware;" parent="K7_2CUfuvbrIvmbNIyGb-4" vertex="1">
          <mxGeometry x="400" y="240" width="40" height="40" as="geometry" />
        </mxCell>
        <mxCell id="K7_2CUfuvbrIvmbNIyGb-13" style="edgeStyle=orthogonalEdgeStyle;rounded=1;orthogonalLoop=1;jettySize=auto;html=1;entryX=0;entryY=0.75;entryDx=0;entryDy=0;entryPerimeter=0;fontColor=#FFFFFF;startArrow=none;startFill=0;strokeWidth=2;fillColor=#e3c800;strokeColor=#B09500;" parent="K7_2CUfuvbrIvmbNIyGb-4" source="K7_2CUfuvbrIvmbNIyGb-17" target="K7_2CUfuvbrIvmbNIyGb-12" edge="1">
          <mxGeometry relative="1" as="geometry" />
        </mxCell>
        <mxCell id="K7_2CUfuvbrIvmbNIyGb-14" value="记录path对应sql语句" style="edgeLabel;html=1;align=center;verticalAlign=middle;resizable=0;points=[];fontColor=default;" parent="K7_2CUfuvbrIvmbNIyGb-13" vertex="1" connectable="0">
          <mxGeometry x="-0.2924" relative="1" as="geometry">
            <mxPoint x="30" y="11" as="offset" />
          </mxGeometry>
        </mxCell>
        <mxCell id="K7_2CUfuvbrIvmbNIyGb-15" style="edgeStyle=orthogonalEdgeStyle;rounded=1;orthogonalLoop=1;jettySize=auto;html=1;entryX=0;entryY=0.75;entryDx=0;entryDy=0;entryPerimeter=0;fontColor=#FFFFFF;startArrow=none;startFill=0;strokeWidth=2;fillColor=#e3c800;strokeColor=#B09500;" parent="K7_2CUfuvbrIvmbNIyGb-4" source="K7_2CUfuvbrIvmbNIyGb-17" target="K7_2CUfuvbrIvmbNIyGb-7" edge="1">
          <mxGeometry relative="1" as="geometry">
            <Array as="points">
              <mxPoint x="220" y="280" />
              <mxPoint x="10" y="280" />
              <mxPoint x="10" y="110" />
            </Array>
          </mxGeometry>
        </mxCell>
        <mxCell id="K7_2CUfuvbrIvmbNIyGb-16" value="创建apigateway path" style="edgeLabel;html=1;align=center;verticalAlign=middle;resizable=0;points=[];fontColor=default;" parent="K7_2CUfuvbrIvmbNIyGb-15" vertex="1" connectable="0">
          <mxGeometry x="-0.1757" y="1" relative="1" as="geometry">
            <mxPoint x="5" y="-11" as="offset" />
          </mxGeometry>
        </mxCell>
        <mxCell id="K7_2CUfuvbrIvmbNIyGb-17" value="api manage" style="sketch=0;outlineConnect=0;fontColor=#232F3E;gradientColor=none;fillColor=#D45B07;strokeColor=none;dashed=0;verticalLabelPosition=bottom;verticalAlign=top;align=center;html=1;fontSize=12;fontStyle=0;aspect=fixed;pointerEvents=1;shape=mxgraph.aws4.lambda_function;" parent="K7_2CUfuvbrIvmbNIyGb-4" vertex="1">
          <mxGeometry x="200" y="320" width="40" height="40" as="geometry" />
        </mxCell>
        <mxCell id="K7_2CUfuvbrIvmbNIyGb-18" style="edgeStyle=orthogonalEdgeStyle;rounded=1;orthogonalLoop=1;jettySize=auto;html=1;entryX=0;entryY=0.5;entryDx=0;entryDy=0;entryPerimeter=0;strokeWidth=2;fillColor=#d80073;strokeColor=#A50040;startArrow=none;startFill=0;" parent="K7_2CUfuvbrIvmbNIyGb-4" source="K7_2CUfuvbrIvmbNIyGb-19" target="K7_2CUfuvbrIvmbNIyGb-12" edge="1">
          <mxGeometry relative="1" as="geometry">
            <Array as="points">
              <mxPoint x="280" y="220" />
              <mxPoint x="280" y="260" />
            </Array>
          </mxGeometry>
        </mxCell>
        <mxCell id="K7_2CUfuvbrIvmbNIyGb-19" value="auth" style="sketch=0;outlineConnect=0;fontColor=#232F3E;gradientColor=none;fillColor=#D45B07;strokeColor=none;dashed=0;verticalLabelPosition=bottom;verticalAlign=top;align=center;html=1;fontSize=12;fontStyle=0;aspect=fixed;pointerEvents=1;shape=mxgraph.aws4.lambda_function;" parent="K7_2CUfuvbrIvmbNIyGb-4" vertex="1">
          <mxGeometry x="200" y="200" width="40" height="40" as="geometry" />
        </mxCell>
        <mxCell id="K7_2CUfuvbrIvmbNIyGb-20" style="edgeStyle=orthogonalEdgeStyle;rounded=1;orthogonalLoop=1;jettySize=auto;html=1;strokeWidth=2;fillColor=#0050ef;strokeColor=#001DBC;" parent="K7_2CUfuvbrIvmbNIyGb-4" source="K7_2CUfuvbrIvmbNIyGb-7" target="K7_2CUfuvbrIvmbNIyGb-10" edge="1">
          <mxGeometry relative="1" as="geometry">
            <mxPoint x="90" y="100" as="sourcePoint" />
            <mxPoint x="210" y="110" as="targetPoint" />
            <Array as="points" />
          </mxGeometry>
        </mxCell>
        <mxCell id="K7_2CUfuvbrIvmbNIyGb-21" style="edgeStyle=orthogonalEdgeStyle;rounded=1;orthogonalLoop=1;jettySize=auto;html=1;strokeWidth=2;strokeColor=#005700;fillColor=#008a00;entryX=0;entryY=0.25;entryDx=0;entryDy=0;entryPerimeter=0;startArrow=none;startFill=0;" parent="K7_2CUfuvbrIvmbNIyGb-4" source="K7_2CUfuvbrIvmbNIyGb-10" target="K7_2CUfuvbrIvmbNIyGb-12" edge="1">
          <mxGeometry relative="1" as="geometry">
            <mxPoint x="249.99954505129563" y="110" as="sourcePoint" />
            <mxPoint x="410" y="110" as="targetPoint" />
            <Array as="points">
              <mxPoint x="320" y="110" />
              <mxPoint x="320" y="250" />
            </Array>
          </mxGeometry>
        </mxCell>
        <mxCell id="K7_2CUfuvbrIvmbNIyGb-22" value="&lt;div&gt;&lt;span style=&quot;font-size: 11px;&quot;&gt;获取查询语句&lt;/span&gt;&lt;/div&gt;" style="edgeLabel;html=1;align=center;verticalAlign=middle;resizable=0;points=[];fontColor=default;labelBackgroundColor=none;" parent="K7_2CUfuvbrIvmbNIyGb-21" vertex="1" connectable="0">
          <mxGeometry x="-0.1272" y="1" relative="1" as="geometry">
            <mxPoint x="39" y="29" as="offset" />
          </mxGeometry>
        </mxCell>
        <mxCell id="K7_2CUfuvbrIvmbNIyGb-23" value="/api/path/to/data" style="text;align=center;verticalAlign=middle;resizable=0;points=[];autosize=1;strokeColor=none;fillColor=#0000FF;labelBackgroundColor=none;labelBorderColor=none;fontColor=#FFFFFF;html=1;" parent="K7_2CUfuvbrIvmbNIyGb-4" vertex="1">
          <mxGeometry x="10" y="50" width="100" height="20" as="geometry" />
        </mxCell>
        <mxCell id="K7_2CUfuvbrIvmbNIyGb-24" value="2" style="rounded=1;whiteSpace=wrap;html=1;labelBackgroundColor=none;labelBorderColor=none;fontColor=#FFFFFF;fillColor=#0000FF;fontSize=17;" parent="K7_2CUfuvbrIvmbNIyGb-4" vertex="1">
          <mxGeometry x="160" y="190" width="20" height="20" as="geometry" />
        </mxCell>
        <mxCell id="K7_2CUfuvbrIvmbNIyGb-25" value="4" style="rounded=1;whiteSpace=wrap;html=1;labelBackgroundColor=none;labelBorderColor=none;fontColor=#FFFFFF;fillColor=#0000FF;fontSize=17;" parent="K7_2CUfuvbrIvmbNIyGb-4" vertex="1">
          <mxGeometry x="150" y="70" width="20" height="20" as="geometry" />
        </mxCell>
        <mxCell id="K7_2CUfuvbrIvmbNIyGb-26" value="6" style="rounded=1;whiteSpace=wrap;html=1;labelBackgroundColor=none;labelBorderColor=none;fontColor=#FFFFFF;fillColor=#0000FF;fontSize=17;" parent="K7_2CUfuvbrIvmbNIyGb-4" vertex="1">
          <mxGeometry x="260" y="70" width="20" height="20" as="geometry" />
        </mxCell>
        <mxCell id="K7_2CUfuvbrIvmbNIyGb-27" value="3" style="rounded=1;whiteSpace=wrap;html=1;labelBackgroundColor=none;labelBorderColor=none;fontColor=#FFFFFF;fillColor=#0000FF;fontSize=17;" parent="K7_2CUfuvbrIvmbNIyGb-4" vertex="1">
          <mxGeometry x="260" y="190" width="20" height="20" as="geometry" />
        </mxCell>
        <mxCell id="K7_2CUfuvbrIvmbNIyGb-28" value="2" style="rounded=1;whiteSpace=wrap;html=1;labelBackgroundColor=none;labelBorderColor=none;fontColor=#000000;fillColor=#e3c800;fontSize=17;strokeColor=#B09500;" parent="K7_2CUfuvbrIvmbNIyGb-4" vertex="1">
          <mxGeometry x="150" y="260" width="20" height="20" as="geometry" />
        </mxCell>
        <mxCell id="K7_2CUfuvbrIvmbNIyGb-29" value="3" style="rounded=1;whiteSpace=wrap;html=1;labelBackgroundColor=none;labelBorderColor=none;fontColor=#000000;fillColor=#e3c800;fontSize=17;strokeColor=#B09500;" parent="K7_2CUfuvbrIvmbNIyGb-4" vertex="1">
          <mxGeometry x="294" y="310" width="20" height="20" as="geometry" />
        </mxCell>
        <mxCell id="K7_2CUfuvbrIvmbNIyGb-30" value="5" style="rounded=1;whiteSpace=wrap;html=1;labelBackgroundColor=none;labelBorderColor=none;fontColor=#FFFFFF;fillColor=#0000FF;fontSize=17;" parent="K7_2CUfuvbrIvmbNIyGb-4" vertex="1">
          <mxGeometry x="330" y="150" width="20" height="20" as="geometry" />
        </mxCell>
        <mxCell id="K7_2CUfuvbrIvmbNIyGb-31" style="edgeStyle=orthogonalEdgeStyle;rounded=1;orthogonalLoop=1;jettySize=auto;html=1;entryX=0;entryY=0.5;entryDx=0;entryDy=0;entryPerimeter=0;strokeWidth=2;fillColor=#0050ef;strokeColor=#001DBC;" parent="1" target="K7_2CUfuvbrIvmbNIyGb-7" edge="1">
          <mxGeometry relative="1" as="geometry">
            <mxPoint x="40" y="130.03703703703695" as="sourcePoint" />
          </mxGeometry>
        </mxCell>
        <mxCell id="K7_2CUfuvbrIvmbNIyGb-32" style="edgeStyle=orthogonalEdgeStyle;rounded=1;orthogonalLoop=1;jettySize=auto;html=1;fontColor=#FFFFFF;startArrow=none;startFill=0;strokeWidth=2;fillColor=#e3c800;strokeColor=#B09500;" parent="1" target="K7_2CUfuvbrIvmbNIyGb-17" edge="1" source="P081sA52nRLbqoEMIEeO-1">
          <mxGeometry relative="1" as="geometry">
            <mxPoint x="40" y="380" as="sourcePoint" />
          </mxGeometry>
        </mxCell>
        <mxCell id="K7_2CUfuvbrIvmbNIyGb-33" value="1" style="rounded=1;whiteSpace=wrap;html=1;labelBackgroundColor=none;labelBorderColor=none;fontColor=#FFFFFF;fillColor=#0000FF;fontSize=17;" parent="1" vertex="1">
          <mxGeometry x="70" y="100" width="20" height="20" as="geometry" />
        </mxCell>
        <mxCell id="K7_2CUfuvbrIvmbNIyGb-34" value="1" style="rounded=1;whiteSpace=wrap;html=1;labelBackgroundColor=none;labelBorderColor=none;fontColor=#000000;fillColor=#e3c800;fontSize=17;strokeColor=#B09500;" parent="1" vertex="1">
          <mxGeometry x="70" y="350" width="20" height="20" as="geometry" />
        </mxCell>
        <mxCell id="K7_2CUfuvbrIvmbNIyGb-35" value="" style="shape=actor;whiteSpace=wrap;html=1;labelBackgroundColor=none;labelBorderColor=none;fontSize=17;fontColor=#FFFFFF;fillColor=none;" parent="1" vertex="1">
          <mxGeometry y="100" width="40" height="60" as="geometry" />
        </mxCell>
        <mxCell id="K7_2CUfuvbrIvmbNIyGb-36" value="" style="shape=actor;whiteSpace=wrap;html=1;labelBackgroundColor=none;labelBorderColor=none;fontSize=17;fontColor=#FFFFFF;fillColor=none;" parent="1" vertex="1">
          <mxGeometry y="340" width="40" height="60" as="geometry" />
        </mxCell>
        <mxCell id="K7_2CUfuvbrIvmbNIyGb-37" value="User" style="text;html=1;align=center;verticalAlign=middle;resizable=0;points=[];autosize=1;strokeColor=none;fillColor=none;fontColor=#000000;" parent="1" vertex="1">
          <mxGeometry y="180" width="40" height="20" as="geometry" />
        </mxCell>
        <mxCell id="K7_2CUfuvbrIvmbNIyGb-38" value="Manager" style="text;html=1;align=center;verticalAlign=middle;resizable=0;points=[];autosize=1;strokeColor=none;fillColor=none;fontColor=#000000;" parent="1" vertex="1">
          <mxGeometry x="-10" y="420" width="60" height="20" as="geometry" />
        </mxCell>
        <mxCell id="P081sA52nRLbqoEMIEeO-1" value="api-gateway" style="sketch=0;points=[[0,0,0],[0.25,0,0],[0.5,0,0],[0.75,0,0],[1,0,0],[0,1,0],[0.25,1,0],[0.5,1,0],[0.75,1,0],[1,1,0],[0,0.25,0],[0,0.5,0],[0,0.75,0],[1,0.25,0],[1,0.5,0],[1,0.75,0]];outlineConnect=0;fontColor=#232F3E;gradientColor=#FF4F8B;gradientDirection=north;fillColor=#BC1356;strokeColor=#ffffff;dashed=0;verticalLabelPosition=bottom;verticalAlign=top;align=center;html=1;fontSize=12;fontStyle=0;aspect=fixed;shape=mxgraph.aws4.resourceIcon;resIcon=mxgraph.aws4.api_gateway;" vertex="1" parent="1">
          <mxGeometry x="160" y="360" width="40" height="40" as="geometry" />
        </mxCell>
        <mxCell id="P081sA52nRLbqoEMIEeO-2" value="" style="edgeStyle=orthogonalEdgeStyle;rounded=1;orthogonalLoop=1;jettySize=auto;html=1;fontColor=#FFFFFF;startArrow=none;startFill=0;strokeWidth=2;fillColor=#e3c800;strokeColor=#B09500;endArrow=classic;" edge="1" parent="1" target="P081sA52nRLbqoEMIEeO-1">
          <mxGeometry relative="1" as="geometry">
            <mxPoint x="40" y="380" as="sourcePoint" />
            <mxPoint x="320.0004549487044" y="380" as="targetPoint" />
          </mxGeometry>
        </mxCell>
      </root>
    </mxGraphModel>
  </diagram>
</mxfile>
